<svg id="visual" viewBox="0 0 900 600" width="900" height="600" xmlns="http://www.w3.org/2000/svg" xmlns:xlink="http://www.w3.org/1999/xlink" version="1.1"><rect x="0" y="0" width="900" height="600" fill="#F5F5F5"></rect><defs><linearGradient id="grad1_0" x1="33.3%" y1="0%" x2="100%" y2="100%"><stop offset="20%" stop-color="#f5f5f5" stop-opacity="1"></stop><stop offset="80%" stop-color="#f5f5f5" stop-opacity="1"></stop></linearGradient></defs><defs><linearGradient id="grad2_0" x1="0%" y1="0%" x2="66.7%" y2="100%"><stop offset="20%" stop-color="#f5f5f5" stop-opacity="1"></stop><stop offset="80%" stop-color="#f5f5f5" stop-opacity="1"></stop></linearGradient></defs><g transform="translate(900, 0)"><path d="M0 405.6C-36.9 387.6 -73.7 369.6 -117.1 360.5C-160.5 351.3 -210.4 351 -235.1 323.6C-259.8 296.2 -259.4 241.8 -283.2 205.7C-306.9 169.7 -354.9 152 -371.9 120.8C-388.9 89.6 -374.9 44.8 -361 0L0 0Z" fill="#363062"></path></g><g transform="translate(0, 600)"><path d="M0 -361C38.1 -355.5 76.1 -350 110 -338.6C143.9 -327.2 173.6 -309.9 214.5 -295.3C255.5 -280.7 307.8 -268.7 325.2 -236.3C342.7 -203.9 325.3 -151 332.9 -108.2C340.5 -65.4 373 -32.7 405.6 0L0 0Z" fill="#363062"></path></g></svg>